# xmcd
#
# Track frame offsets: 
#        150
#        22786
#        41215
#        58488
#        70127
#        94007
#        118486
#        139337
#        161569
#        175721
#        206874
#        233820
#
# Disc length: 3298 seconds
#
# Revision: 0
# Processed by: cddbd v1.5.2PL0 Copyright (c) Steve Scherf et al.
# Submitted via: ExactAudioCopy v1.2
#
DISCID=b10ce00c
DTITLE=Big Jay McNeely - I'm Still Here: Big Jay Sings the Blues
DYEAR=2018
DGENRE=Blues
TTITLE0=You Never Miss the Water (Till the Well Runs Dry)
TTITLE1=Baby, Please Don't Go
TTITLE2=I'm Still Here
TTITLE3=Once I Had a Woman
TTITLE4=Please Don't Turn Me Away
TTITLE5=I Was Too Blind to See
TTITLE6=I'm Gonna Make It Alright
TTITLE7=Woman, Woman, Woman
TTITLE8=I Love to Feel Free
TTITLE9=For My Baby
TTITLE10=Way Back in the Old Days
TTITLE11=Still Got a Long Way to Go (Going Back to L.A.)
EXTD=
EXTT0=
EXTT1=
EXTT2=
EXTT3=
EXTT4=
EXTT5=
EXTT6=
EXTT7=
EXTT8=
EXTT9=
EXTT10=
EXTT11=
PLAYORDER=
